<svg xmlns="http://www.w3.org/2000/svg" viewBox="0 0 800 500">
  <rect width="800" height="500" fill="#1E6B9A"/>
  <rect x="0" y="0" width="800" height="500" fill="url(#grad)"/>
  <defs>
    <linearGradient id="grad" x1="0%" y1="0%" x2="100%" y2="100%">
      <stop offset="0%" style="stop-color:#1E6B9A;stop-opacity:1"/>
      <stop offset="100%" style="stop-color:#0F2D40;stop-opacity:1"/>
    </linearGradient>
  </defs>
  <!-- Person silhouette -->
  <circle cx="320" cy="170" r="50" fill="#2EB8B0" opacity="0.9"/>
  <path d="M200 380 Q320 280 440 380" fill="#2EB8B0" opacity="0.9"/>
  <!-- Care hand -->
  <path d="M460 280 Q520 240 560 280 Q540 320 500 340 Q460 320 460 280Z" fill="#F0F8FF" opacity="0.8"/>
  <!-- Heart -->
  <path d="M500 295 Q500 285 510 285 Q520 285 520 295 Q520 285 530 285 Q540 285 540 295 Q540 305 520 315 Q500 305 500 295Z" fill="#2EB8B0"/>
  <!-- Text -->
  <text x="400" y="440" font-family="sans-serif" font-size="22" font-weight="bold" fill="white" text-anchor="middle" opacity="0.9">Alpha Quality Care</text>
  <text x="400" y="468" font-family="sans-serif" font-size="14" fill="#a8d8f0" text-anchor="middle">Compassionate Care, Right at Home</text>
</svg>
